<?xml version="1.0" encoding="UTF-8" standalone="no"?>
<!DOCTYPE svg PUBLIC "-//W3C//DTD SVG 1.1//EN"
 "http://www.w3.org/Graphics/SVG/1.1/DTD/svg11.dtd">
<!-- Generated by graphviz version 2.49.0 (20210829.0051)
 -->
<!-- Pages: 1 -->
<svg width="729pt" height="187pt"
 viewBox="0.00 0.00 729.00 187.04" xmlns="http://www.w3.org/2000/svg" xmlns:xlink="http://www.w3.org/1999/xlink">
<g id="graph0" class="graph" transform="scale(0.67 0.67) rotate(0) translate(4 276)">
<polygon fill="white" stroke="transparent" points="-4,4 -4,-276 1087.29,-276 1087.29,4 -4,4"/>
<!-- I -->
<!-- 0 -->
<g id="node2" class="node">
<title>0</title>
<ellipse fill="none" stroke="#ff4da0" stroke-width="2" cx="425.29" cy="-216" rx="18" ry="18"/>
<text text-anchor="middle" x="425.29" y="-212.3" font-family="Times,serif" font-size="14.00">0</text>
</g>
<!-- I&#45;&gt;0 -->
<g id="edge1" class="edge">
<title>I&#45;&gt;0</title>
<path fill="none" stroke="black" d="M425.29,-270.85C425.29,-269.21 425.29,-254.85 425.29,-241.37"/>
<polygon fill="black" stroke="black" points="425.29,-234.06 428.44,-241.06 425.29,-237.56 425.29,-241.06 425.29,-241.06 425.29,-241.06 425.29,-237.56 422.14,-241.06 425.29,-234.06 425.29,-234.06"/>
</g>
<!-- 0&#45;&gt;0 -->
<g id="edge2" class="edge">
<title>0&#45;&gt;0</title>
<path fill="none" stroke="#ff4da0" stroke-width="2" d="M442.33,-222.38C452.15,-223.68 461.29,-221.55 461.29,-216 461.29,-211.83 456.15,-209.6 449.44,-209.29"/>
<polygon fill="#ff4da0" stroke="#ff4da0" stroke-width="2" points="442.33,-209.62 449.18,-206.15 445.8,-208.96 449.3,-208.79 449.32,-209.29 449.35,-209.79 445.85,-209.96 449.47,-212.44 442.33,-209.62 442.33,-209.62"/>
<text text-anchor="middle" x="574.79" y="-219.8" font-family="Times,serif" font-size="14.00">!req_n / !accept_n &amp; !pon</text>
<text text-anchor="middle" x="574.79" y="-204.8" font-family="Times,serif" font-size="14.00">req_n &amp; !rstn / !accept_n &amp; pon</text>
</g>
<!-- 2 -->
<g id="node3" class="node">
<title>2</title>
<ellipse fill="none" stroke="#ff4da0" stroke-width="2" cx="222.29" cy="-109.5" rx="18" ry="18"/>
<text text-anchor="middle" x="222.29" y="-105.8" font-family="Times,serif" font-size="14.00">2</text>
</g>
<!-- 0&#45;&gt;2 -->
<g id="edge3" class="edge">
<title>0&#45;&gt;2</title>
<path fill="none" stroke="#ff4da0" stroke-width="2" d="M407.05,-215.3C355.65,-215.7 211.53,-213.75 182.29,-180 167.88,-163.36 186.53,-140.76 202.9,-125.91"/>
<polygon fill="#ff4da0" stroke="#ff4da0" stroke-width="2" points="208.32,-121.19 205.11,-128.17 206.01,-123.87 203.37,-126.17 203.04,-125.79 202.71,-125.42 205.35,-123.12 200.97,-123.42 208.32,-121.19 208.32,-121.19"/>
<text text-anchor="middle" x="292.79" y="-161.3" font-family="Times,serif" font-size="14.00">req_n &amp; rstn / !accept_n &amp; pon</text>
</g>
<!-- 2&#45;&gt;0 -->
<g id="edge7" class="edge">
<title>2&#45;&gt;0</title>
<path fill="none" stroke="#ff4da0" stroke-width="2" d="M240.13,-112.17C280.87,-116.33 379.14,-128.4 403.29,-150 414.86,-160.35 420.36,-177 422.96,-190.86"/>
<polygon fill="#ff4da0" stroke="#ff4da0" stroke-width="2" points="424.07,-197.8 419.85,-191.39 423.02,-194.42 422.47,-190.97 422.96,-190.89 423.46,-190.81 424.01,-194.27 426.07,-190.39 424.07,-197.8 424.07,-197.8"/>
<text text-anchor="middle" x="539.79" y="-168.8" font-family="Times,serif" font-size="14.00">!req_n &amp; !rstn / !accept_n &amp; !pon</text>
<text text-anchor="middle" x="539.79" y="-153.8" font-family="Times,serif" font-size="14.00">req_n &amp; !rstn / !accept_n &amp; pon</text>
</g>
<!-- 2&#45;&gt;2 -->
<g id="edge9" class="edge">
<title>2&#45;&gt;2</title>
<path fill="none" stroke="#ff4da0" stroke-width="2" d="M238.58,-117.86C248.68,-119.88 258.29,-117.09 258.29,-109.5 258.29,-103.8 252.89,-100.81 245.92,-100.52"/>
<polygon fill="#ff4da0" stroke="#ff4da0" stroke-width="2" points="238.58,-101.14 245.3,-97.41 242.03,-100.35 245.52,-100.06 245.56,-100.55 245.6,-101.05 242.11,-101.34 245.82,-103.69 238.58,-101.14 238.58,-101.14"/>
<text text-anchor="middle" x="429.79" y="-105.8" font-family="Times,serif" font-size="14.00">(active &amp; rstn) | (req_n &amp; rstn) / accept_n &amp; pon</text>
</g>
<!-- 1 -->
<g id="node4" class="node">
<title>1</title>
<ellipse fill="none" stroke="black" cx="321.29" cy="-18" rx="18" ry="18"/>
<text text-anchor="middle" x="321.29" y="-14.3" font-family="Times,serif" font-size="14.00">1</text>
</g>
<!-- 2&#45;&gt;1 -->
<g id="edge8" class="edge">
<title>2&#45;&gt;1</title>
<path fill="none" stroke="black" d="M204.11,-108.08C156.3,-106.57 28.94,-99.68 3.29,-69 -0.98,-63.88 -1.16,-58.97 3.29,-54 22.74,-32.3 223.99,-22.66 295.92,-19.89"/>
<polygon fill="black" stroke="black" points="303.25,-19.61 296.37,-23.02 299.75,-19.74 296.25,-19.87 296.25,-19.87 296.25,-19.87 299.75,-19.74 296.13,-16.73 303.25,-19.61 303.25,-19.61"/>
<text text-anchor="middle" x="149.29" y="-57.8" font-family="Times,serif" font-size="14.00">!active &amp; !req_n &amp; rstn / accept_n &amp; pon</text>
</g>
<!-- 1&#45;&gt;0 -->
<g id="edge4" class="edge">
<title>1&#45;&gt;0</title>
<path fill="none" stroke="black" d="M339.32,-19.56C405.74,-21.78 634.06,-31.06 656.29,-54 707.61,-106.95 682.5,-157.76 663.29,-180 635.99,-211.61 506.06,-215.19 450.54,-215.25"/>
<polygon fill="black" stroke="black" points="443.53,-215.23 450.53,-212.1 447.03,-215.24 450.53,-215.25 450.53,-215.25 450.53,-215.25 447.03,-215.24 450.52,-218.4 443.53,-215.23 443.53,-215.23"/>
<text text-anchor="middle" x="884.79" y="-120.8" font-family="Times,serif" font-size="14.00">!req_n &amp; !rstn / !accept_n &amp; !pon</text>
<text text-anchor="middle" x="884.79" y="-105.8" font-family="Times,serif" font-size="14.00">req_n &amp; !rstn / !accept_n &amp; pon</text>
<text text-anchor="middle" x="884.79" y="-90.8" font-family="Times,serif" font-size="14.00">!active &amp; !processing &amp; !req_n &amp; rstn / accept_n &amp; pon</text>
</g>
<!-- 1&#45;&gt;2 -->
<g id="edge6" class="edge">
<title>1&#45;&gt;2</title>
<path fill="none" stroke="black" d="M317,-35.94C313.63,-46.48 308.01,-59.75 299.29,-69 284.78,-84.4 262.92,-94.82 246.2,-101.07"/>
<polygon fill="black" stroke="black" points="239.38,-103.49 244.92,-98.18 242.68,-102.32 245.98,-101.14 245.98,-101.14 245.98,-101.14 242.68,-102.32 247.03,-104.11 239.38,-103.49 239.38,-103.49"/>
<text text-anchor="middle" x="480.79" y="-57.8" font-family="Times,serif" font-size="14.00">(active &amp; rstn) | (req_n &amp; rstn) / accept_n &amp; pon</text>
</g>
<!-- 1&#45;&gt;1 -->
<g id="edge5" class="edge">
<title>1&#45;&gt;1</title>
<path fill="none" stroke="black" d="M337.96,-25.38C347.92,-27.02 357.29,-24.56 357.29,-18 357.29,-13.08 352.02,-10.46 345.18,-10.16"/>
<polygon fill="black" stroke="black" points="337.96,-10.62 344.74,-7.03 341.45,-10.39 344.94,-10.17 344.94,-10.17 344.94,-10.17 341.45,-10.39 345.14,-13.31 337.96,-10.62 337.96,-10.62"/>
<text text-anchor="middle" x="552.79" y="-14.3" font-family="Times,serif" font-size="14.00">!active &amp; processing &amp; !req_n &amp; rstn / accept_n &amp; pon</text>
</g>
</g>
</svg>
