<?xml version="1.0" encoding="UTF-8" standalone="no"?>
<!DOCTYPE svg PUBLIC "-//W3C//DTD SVG 1.1//EN"
 "http://www.w3.org/Graphics/SVG/1.1/DTD/svg11.dtd">
<!-- Generated by graphviz version 2.49.0 (20210829.0051)
 -->
<!-- Pages: 1 -->
<svg width="322pt" height="177pt"
 viewBox="0.00 0.00 322.28 177.00" xmlns="http://www.w3.org/2000/svg" xmlns:xlink="http://www.w3.org/1999/xlink">
<g id="graph0" class="graph" transform="scale(1.0 1.0) rotate(0) translate(4 173)">
<polygon fill="white" stroke="transparent" points="-4,4 -4,-173 318.28,-173 318.28,4 -4,4"/>
<!-- I -->
<!-- 0 -->
<g id="node2" class="node">
<title>0</title>
<ellipse fill="#ffffaa" stroke="black" cx="90.28" cy="-113" rx="18" ry="18"/>
<text text-anchor="middle" x="90.28" y="-109.3" font-family="Lato" font-size="14.00">0</text>
</g>
<!-- I&#45;&gt;0 -->
<g id="edge1" class="edge">
<title>I&#45;&gt;0</title>
<path fill="none" stroke="black" d="M90.28,-167.85C90.28,-166.21 90.28,-151.85 90.28,-138.37"/>
<polygon fill="black" stroke="black" points="90.28,-131.06 93.43,-138.06 90.28,-134.56 90.28,-138.06 90.28,-138.06 90.28,-138.06 90.28,-134.56 87.13,-138.06 90.28,-131.06 90.28,-131.06"/>
</g>
<!-- 0&#45;&gt;0 -->
<g id="edge2" class="edge">
<title>0&#45;&gt;0</title>
<path fill="none" stroke="black" d="M107.32,-119.38C117.14,-120.68 126.28,-118.55 126.28,-113 126.28,-108.83 121.14,-106.6 114.42,-106.29"/>
<polygon fill="black" stroke="black" points="107.32,-106.62 114.16,-103.15 110.81,-106.46 114.31,-106.29 114.31,-106.29 114.31,-106.29 110.81,-106.46 114.46,-109.44 107.32,-106.62 107.32,-106.62"/>
<polygon fill="#e9f4fb" stroke="transparent" points="128.78,-103 128.78,-122 160.78,-122 160.78,-103 128.78,-103"/>
<text text-anchor="start" x="130.78" y="-108.8" font-family="Lato" font-size="14.00">!rstn</text>
<text text-anchor="start" x="164.78" y="-108.8" font-family="Lato" font-size="14.00">/</text>
<polygon fill="#ffe5f1" stroke="transparent" points="175.78,-103 175.78,-122 279.78,-122 279.78,-103 175.78,-103"/>
<text text-anchor="start" x="177.78" y="-108.8" font-family="Lato" font-size="14.00">!accept_n &amp; pon</text>
</g>
<!-- 1 -->
<g id="node3" class="node">
<title>1</title>
<ellipse fill="#ffffaa" stroke="black" cx="90.28" cy="-18" rx="18" ry="18"/>
<text text-anchor="middle" x="90.28" y="-14.3" font-family="Lato" font-size="14.00">1</text>
</g>
<!-- 0&#45;&gt;1 -->
<g id="edge3" class="edge">
<title>0&#45;&gt;1</title>
<path fill="none" stroke="black" d="M72.14,-110.4C51.71,-107.52 19.39,-99.47 4.28,-77 -1.43,-68.52 -1.43,-62.48 4.28,-54 17.74,-33.99 44.84,-25.41 65.05,-21.74"/>
<polygon fill="black" stroke="black" points="72.14,-20.6 65.73,-24.82 68.68,-21.16 65.23,-21.71 65.23,-21.71 65.23,-21.71 68.68,-21.16 64.73,-18.6 72.14,-20.6 72.14,-20.6"/>
<polygon fill="#e9f4fb" stroke="transparent" points="6.28,-55.5 6.28,-74.5 35.28,-74.5 35.28,-55.5 6.28,-55.5"/>
<text text-anchor="start" x="8.28" y="-61.3" font-family="Lato" font-size="14.00">rstn</text>
<text text-anchor="start" x="39.28" y="-61.3" font-family="Lato" font-size="14.00">/</text>
<polygon fill="#ffe5f1" stroke="transparent" points="50.28,-55.5 50.28,-74.5 154.28,-74.5 154.28,-55.5 50.28,-55.5"/>
<text text-anchor="start" x="52.28" y="-61.3" font-family="Lato" font-size="14.00">!accept_n &amp; pon</text>
</g>
<!-- 1&#45;&gt;0 -->
<g id="edge4" class="edge">
<title>1&#45;&gt;0</title>
<path fill="none" stroke="black" d="M107.85,-22.91C123.62,-27.46 145.85,-36.66 156.28,-54 161.55,-62.76 161.55,-68.24 156.28,-77 147.32,-91.9 129.64,-100.79 114.84,-105.88"/>
<polygon fill="black" stroke="black" points="107.85,-108.09 113.58,-102.98 111.19,-107.03 114.52,-105.98 114.52,-105.98 114.52,-105.98 111.19,-107.03 115.47,-108.99 107.85,-108.09 107.85,-108.09"/>
<polygon fill="#e9f4fb" stroke="transparent" points="161.78,-55.5 161.78,-74.5 193.78,-74.5 193.78,-55.5 161.78,-55.5"/>
<text text-anchor="start" x="163.78" y="-61.3" font-family="Lato" font-size="14.00">!rstn</text>
<text text-anchor="start" x="197.78" y="-61.3" font-family="Lato" font-size="14.00">/</text>
<polygon fill="#ffe5f1" stroke="transparent" points="208.78,-55.5 208.78,-74.5 312.78,-74.5 312.78,-55.5 208.78,-55.5"/>
<text text-anchor="start" x="210.78" y="-61.3" font-family="Lato" font-size="14.00">!accept_n &amp; pon</text>
</g>
<!-- 1&#45;&gt;1 -->
<g id="edge5" class="edge">
<title>1&#45;&gt;1</title>
<path fill="none" stroke="black" d="M106.57,-26.02C116.67,-27.95 126.28,-25.28 126.28,-18 126.28,-12.54 120.87,-9.67 113.91,-9.4"/>
<polygon fill="black" stroke="black" points="106.57,-9.98 113.3,-6.29 110.06,-9.7 113.55,-9.43 113.55,-9.43 113.55,-9.43 110.06,-9.7 113.8,-12.57 106.57,-9.98 106.57,-9.98"/>
<polygon fill="#e9f4fb" stroke="transparent" points="128.28,-8 128.28,-27 157.28,-27 157.28,-8 128.28,-8"/>
<text text-anchor="start" x="130.28" y="-13.8" font-family="Lato" font-size="14.00">rstn</text>
<text text-anchor="start" x="161.28" y="-13.8" font-family="Lato" font-size="14.00">/</text>
<polygon fill="#ffe5f1" stroke="transparent" points="172.28,-8 172.28,-27 272.28,-27 272.28,-8 172.28,-8"/>
<text text-anchor="start" x="174.28" y="-13.8" font-family="Lato" font-size="14.00">accept_n &amp; pon</text>
</g>
</g>
</svg>
