<?xml version="1.0" encoding="UTF-8" standalone="no"?>
<!DOCTYPE svg PUBLIC "-//W3C//DTD SVG 1.1//EN"
 "http://www.w3.org/Graphics/SVG/1.1/DTD/svg11.dtd">
<!-- Generated by graphviz version 2.49.0 (20210829.0051)
 -->
<!-- Pages: 1 -->
<svg width="729pt" height="245pt"
 viewBox="0.00 0.00 729.00 244.66" xmlns="http://www.w3.org/2000/svg" xmlns:xlink="http://www.w3.org/1999/xlink">
<g id="graph0" class="graph" transform="scale(0.74 0.74) rotate(0) translate(4 326)">
<polygon fill="white" stroke="transparent" points="-4,4 -4,-326 979.27,-326 979.27,4 -4,4"/>
<!-- I -->
<!-- 0 -->
<g id="node2" class="node">
<title>0</title>
<ellipse fill="#ffffaa" stroke="black" cx="383.27" cy="-262" rx="18" ry="18"/>
<text text-anchor="middle" x="383.27" y="-258.3" font-family="Lato" font-size="14.00">0</text>
</g>
<!-- I&#45;&gt;0 -->
<g id="edge1" class="edge">
<title>I&#45;&gt;0</title>
<path fill="none" stroke="black" d="M383.27,-320.83C383.27,-318.99 383.27,-302.25 383.27,-287.25"/>
<polygon fill="black" stroke="black" points="383.27,-280.1 386.42,-287.1 383.27,-283.6 383.27,-287.1 383.27,-287.1 383.27,-287.1 383.27,-283.6 380.12,-287.1 383.27,-280.1 383.27,-280.1"/>
</g>
<!-- 0&#45;&gt;0 -->
<g id="edge2" class="edge">
<title>0&#45;&gt;0</title>
<path fill="none" stroke="black" d="M399.93,-269.03C409.89,-270.59 419.27,-268.25 419.27,-262 419.27,-257.31 413.99,-254.82 407.15,-254.53"/>
<polygon fill="black" stroke="black" points="399.93,-254.97 406.73,-251.4 403.42,-254.76 406.92,-254.54 406.92,-254.54 406.92,-254.54 403.42,-254.76 407.11,-257.69 399.93,-254.97 399.93,-254.97"/>
<polygon fill="#e9f4fb" stroke="transparent" points="421.77,-263 421.77,-282 504.77,-282 504.77,-263 421.77,-263"/>
<text text-anchor="start" x="464.77" y="-268.8" font-family="Lato" font-size="14.00">!req_n</text>
<text text-anchor="start" x="508.77" y="-268.8" font-family="Lato" font-size="14.00">/</text>
<polygon fill="#ffe5f1" stroke="transparent" points="519.77,-263 519.77,-282 626.77,-282 626.77,-263 519.77,-263"/>
<text text-anchor="start" x="521.77" y="-268.8" font-family="Lato" font-size="14.00">!accept_n &amp; !pon</text>
<polygon fill="#e9f4fb" stroke="transparent" points="421.77,-242 421.77,-261 504.77,-261 504.77,-242 421.77,-242"/>
<text text-anchor="start" x="423.77" y="-247.8" font-family="Lato" font-size="14.00">req_n &amp; !rstn</text>
<text text-anchor="start" x="508.77" y="-247.8" font-family="Lato" font-size="14.00">/</text>
<polygon fill="#ffe5f1" stroke="transparent" points="519.77,-242 519.77,-261 626.77,-261 626.77,-242 519.77,-242"/>
<text text-anchor="start" x="521.77" y="-247.8" font-family="Lato" font-size="14.00">!accept_n &amp; pon</text>
</g>
<!-- 2 -->
<g id="node3" class="node">
<title>2</title>
<ellipse fill="#ffffaa" stroke="black" cx="197.27" cy="-127.5" rx="18" ry="18"/>
<text text-anchor="middle" x="197.27" y="-123.8" font-family="Lato" font-size="14.00">2</text>
</g>
<!-- 0&#45;&gt;2 -->
<g id="edge3" class="edge">
<title>0&#45;&gt;2</title>
<path fill="none" stroke="black" d="M365.3,-260.73C316.76,-259.58 184.81,-253.55 158.27,-222 139.22,-199.37 162.03,-166.12 179.92,-145.97"/>
<polygon fill="black" stroke="black" points="184.8,-140.65 182.39,-147.94 182.44,-143.23 180.07,-145.81 180.07,-145.81 180.07,-145.81 182.44,-143.23 177.75,-143.68 184.8,-140.65 184.8,-140.65"/>
<polygon fill="#e9f4fb" stroke="transparent" points="160.77,-190 160.77,-209 240.77,-209 240.77,-190 160.77,-190"/>
<text text-anchor="start" x="162.77" y="-195.8" font-family="Lato" font-size="14.00">req_n &amp; rstn</text>
<text text-anchor="start" x="244.77" y="-195.8" font-family="Lato" font-size="14.00">/</text>
<polygon fill="#ffe5f1" stroke="transparent" points="255.77,-190 255.77,-209 359.77,-209 359.77,-190 255.77,-190"/>
<text text-anchor="start" x="257.77" y="-195.8" font-family="Lato" font-size="14.00">!accept_n &amp; pon</text>
</g>
<!-- 2&#45;&gt;0 -->
<g id="edge7" class="edge">
<title>2&#45;&gt;0</title>
<path fill="none" stroke="black" d="M215.45,-128.54C249.17,-129.63 321.58,-136.94 361.27,-178 376.22,-193.48 381.31,-217.89 382.9,-236.25"/>
<polygon fill="black" stroke="black" points="383.38,-243.7 379.78,-236.92 383.15,-240.2 382.93,-236.71 382.93,-236.71 382.93,-236.71 383.15,-240.2 386.07,-236.51 383.38,-243.7 383.38,-243.7"/>
<polygon fill="#e9f4fb" stroke="transparent" points="382.77,-201 382.77,-220 469.77,-220 469.77,-201 382.77,-201"/>
<text text-anchor="start" x="384.77" y="-206.8" font-family="Lato" font-size="14.00">!req_n &amp; !rstn</text>
<text text-anchor="start" x="473.77" y="-206.8" font-family="Lato" font-size="14.00">/</text>
<polygon fill="#ffe5f1" stroke="transparent" points="484.77,-201 484.77,-220 591.77,-220 591.77,-201 484.77,-201"/>
<text text-anchor="start" x="486.77" y="-206.8" font-family="Lato" font-size="14.00">!accept_n &amp; !pon</text>
<polygon fill="#e9f4fb" stroke="transparent" points="382.77,-180 382.77,-199 469.77,-199 469.77,-180 382.77,-180"/>
<text text-anchor="start" x="388.77" y="-185.8" font-family="Lato" font-size="14.00">req_n &amp; !rstn</text>
<text text-anchor="start" x="473.77" y="-185.8" font-family="Lato" font-size="14.00">/</text>
<polygon fill="#ffe5f1" stroke="transparent" points="484.77,-180 484.77,-199 591.77,-199 591.77,-180 484.77,-180"/>
<text text-anchor="start" x="486.77" y="-185.8" font-family="Lato" font-size="14.00">!accept_n &amp; pon</text>
</g>
<!-- 2&#45;&gt;2 -->
<g id="edge9" class="edge">
<title>2&#45;&gt;2</title>
<path fill="none" stroke="black" d="M212.06,-137.87C222.68,-141.25 233.27,-137.79 233.27,-127.5 233.27,-119.62 227.06,-115.75 219.39,-115.88"/>
<polygon fill="black" stroke="black" points="212.06,-117.13 218.43,-112.85 215.51,-116.54 218.96,-115.95 218.96,-115.95 218.96,-115.95 215.51,-116.54 219.49,-119.06 212.06,-117.13 212.06,-117.13"/>
<polygon fill="#e9f4fb" stroke="transparent" points="235.27,-117.5 235.27,-136.5 418.27,-136.5 418.27,-117.5 235.27,-117.5"/>
<text text-anchor="start" x="237.27" y="-123.3" font-family="Lato" font-size="14.00">(active &amp; rstn) | (req_n &amp; rstn)</text>
<text text-anchor="start" x="422.27" y="-123.3" font-family="Lato" font-size="14.00">/</text>
<polygon fill="#ffe5f1" stroke="transparent" points="433.27,-117.5 433.27,-136.5 533.27,-136.5 533.27,-117.5 433.27,-117.5"/>
<text text-anchor="start" x="435.27" y="-123.3" font-family="Lato" font-size="14.00">accept_n &amp; pon</text>
</g>
<!-- 1 -->
<g id="node4" class="node">
<title>1</title>
<ellipse fill="#ffffaa" stroke="black" cx="294.27" cy="-18" rx="18" ry="18"/>
<text text-anchor="middle" x="294.27" y="-14.3" font-family="Lato" font-size="14.00">1</text>
</g>
<!-- 2&#45;&gt;1 -->
<g id="edge8" class="edge">
<title>2&#45;&gt;1</title>
<path fill="none" stroke="black" d="M178.96,-125.77C122.83,-122.94 -40.11,-109.81 9.27,-54 26.36,-34.68 202.19,-23.72 268.84,-20.23"/>
<polygon fill="black" stroke="black" points="276.04,-19.86 269.21,-23.37 272.55,-20.04 269.05,-20.22 269.05,-20.22 269.05,-20.22 272.55,-20.04 268.89,-17.07 276.04,-19.86 276.04,-19.86"/>
<polygon fill="#e9f4fb" stroke="transparent" points="11.77,-55.5 11.77,-74.5 151.77,-74.5 151.77,-55.5 11.77,-55.5"/>
<text text-anchor="start" x="13.77" y="-61.3" font-family="Lato" font-size="14.00">!active &amp; !req_n &amp; rstn</text>
<text text-anchor="start" x="155.77" y="-61.3" font-family="Lato" font-size="14.00">/</text>
<polygon fill="#ffe5f1" stroke="transparent" points="166.77,-55.5 166.77,-74.5 266.77,-74.5 266.77,-55.5 166.77,-55.5"/>
<text text-anchor="start" x="168.77" y="-61.3" font-family="Lato" font-size="14.00">accept_n &amp; pon</text>
</g>
<!-- 1&#45;&gt;0 -->
<g id="edge4" class="edge">
<title>1&#45;&gt;0</title>
<path fill="none" stroke="black" d="M312.29,-19.81C373.56,-22.72 571.12,-33.64 590.27,-54 645.1,-112.31 620.39,-194.28 597.27,-222 573.46,-250.54 459.76,-258.25 408.47,-260.29"/>
<polygon fill="black" stroke="black" points="401.37,-260.55 408.25,-257.14 404.87,-260.42 408.37,-260.29 408.37,-260.29 408.37,-260.29 404.87,-260.42 408.48,-263.44 401.37,-260.55 401.37,-260.55"/>
<polygon fill="#e9f4fb" stroke="transparent" points="625.27,-138.5 625.27,-157.5 851.27,-157.5 851.27,-138.5 625.27,-138.5"/>
<text text-anchor="start" x="766.27" y="-144.3" font-family="Lato" font-size="14.00">!req_n &amp; !rstn</text>
<text text-anchor="start" x="855.27" y="-144.3" font-family="Lato" font-size="14.00">/</text>
<polygon fill="#ffe5f1" stroke="transparent" points="866.27,-138.5 866.27,-157.5 973.27,-157.5 973.27,-138.5 866.27,-138.5"/>
<text text-anchor="start" x="868.27" y="-144.3" font-family="Lato" font-size="14.00">!accept_n &amp; !pon</text>
<polygon fill="#e9f4fb" stroke="transparent" points="625.27,-117.5 625.27,-136.5 851.27,-136.5 851.27,-117.5 625.27,-117.5"/>
<text text-anchor="start" x="770.27" y="-123.3" font-family="Lato" font-size="14.00">req_n &amp; !rstn</text>
<text text-anchor="start" x="855.27" y="-123.3" font-family="Lato" font-size="14.00">/</text>
<polygon fill="#ffe5f1" stroke="transparent" points="866.27,-117.5 866.27,-136.5 973.27,-136.5 973.27,-117.5 866.27,-117.5"/>
<text text-anchor="start" x="868.27" y="-123.3" font-family="Lato" font-size="14.00">!accept_n &amp; pon</text>
<polygon fill="#e9f4fb" stroke="transparent" points="625.27,-96.5 625.27,-115.5 851.27,-115.5 851.27,-96.5 625.27,-96.5"/>
<text text-anchor="start" x="627.27" y="-102.3" font-family="Lato" font-size="14.00">!active &amp; !processing &amp; !req_n &amp; rstn</text>
<text text-anchor="start" x="855.27" y="-102.3" font-family="Lato" font-size="14.00">/</text>
<polygon fill="#ffe5f1" stroke="transparent" points="866.27,-96.5 866.27,-115.5 973.27,-115.5 973.27,-96.5 866.27,-96.5"/>
<text text-anchor="start" x="868.27" y="-102.3" font-family="Lato" font-size="14.00">accept_n &amp; pon</text>
</g>
<!-- 1&#45;&gt;2 -->
<g id="edge6" class="edge">
<title>1&#45;&gt;2</title>
<path fill="none" stroke="black" d="M290.82,-35.9C287.63,-48.29 281.89,-64.98 272.27,-77 258.36,-94.37 236.67,-107.75 220.19,-116.2"/>
<polygon fill="black" stroke="black" points="213.48,-119.51 218.36,-113.58 216.62,-117.96 219.75,-116.41 219.75,-116.41 219.75,-116.41 216.62,-117.96 221.15,-119.23 213.48,-119.51 213.48,-119.51"/>
<polygon fill="#e9f4fb" stroke="transparent" points="286.27,-55.5 286.27,-74.5 469.27,-74.5 469.27,-55.5 286.27,-55.5"/>
<text text-anchor="start" x="288.27" y="-61.3" font-family="Lato" font-size="14.00">(active &amp; rstn) | (req_n &amp; rstn)</text>
<text text-anchor="start" x="473.27" y="-61.3" font-family="Lato" font-size="14.00">/</text>
<polygon fill="#ffe5f1" stroke="transparent" points="484.27,-55.5 484.27,-74.5 584.27,-74.5 584.27,-55.5 484.27,-55.5"/>
<text text-anchor="start" x="486.27" y="-61.3" font-family="Lato" font-size="14.00">accept_n &amp; pon</text>
</g>
<!-- 1&#45;&gt;1 -->
<g id="edge5" class="edge">
<title>1&#45;&gt;1</title>
<path fill="none" stroke="black" d="M310.56,-26.02C320.66,-27.95 330.27,-25.28 330.27,-18 330.27,-12.54 324.86,-9.67 317.9,-9.4"/>
<polygon fill="black" stroke="black" points="310.56,-9.98 317.28,-6.29 314.05,-9.7 317.53,-9.43 317.53,-9.43 317.53,-9.43 314.05,-9.7 317.78,-12.57 310.56,-9.98 310.56,-9.98"/>
<polygon fill="#e9f4fb" stroke="transparent" points="332.77,-8 332.77,-27 554.77,-27 554.77,-8 332.77,-8"/>
<text text-anchor="start" x="334.77" y="-13.8" font-family="Lato" font-size="14.00">!active &amp; processing &amp; !req_n &amp; rstn</text>
<text text-anchor="start" x="558.77" y="-13.8" font-family="Lato" font-size="14.00">/</text>
<polygon fill="#ffe5f1" stroke="transparent" points="569.77,-8 569.77,-27 669.77,-27 669.77,-8 569.77,-8"/>
<text text-anchor="start" x="571.77" y="-13.8" font-family="Lato" font-size="14.00">accept_n &amp; pon</text>
</g>
</g>
</svg>
