<?xml version="1.0" encoding="UTF-8" standalone="no"?>
<!DOCTYPE svg PUBLIC "-//W3C//DTD SVG 1.1//EN"
 "http://www.w3.org/Graphics/SVG/1.1/DTD/svg11.dtd">
<!-- Generated by graphviz version 2.49.0 (20210829.0051)
 -->
<!-- Pages: 1 -->
<svg width="729pt" height="324pt"
 viewBox="0.00 0.00 729.00 324.20" xmlns="http://www.w3.org/2000/svg" xmlns:xlink="http://www.w3.org/1999/xlink">
<g id="graph0" class="graph" transform="scale(0.68 0.68) rotate(0) translate(4 473)">
<polygon fill="white" stroke="transparent" points="-4,4 -4,-473 1068.59,-473 1068.59,4 -4,4"/>
<text text-anchor="middle" x="532.3" y="-453.8" font-family="Times,serif" font-size="14.00">[Büchi]</text>
<!-- I -->
<!-- 0 -->
<g id="node2" class="node">
<title>0</title>
<ellipse fill="none" stroke="black" cx="326.59" cy="-390" rx="25.2" ry="18"/>
<text text-anchor="middle" x="326.59" y="-386.3" font-family="Times,serif" font-size="14.00">0,2</text>
</g>
<!-- I&#45;&gt;0 -->
<g id="edge1" class="edge">
<title>I&#45;&gt;0</title>
<path fill="none" stroke="black" d="M326.59,-444.85C326.59,-443.21 326.59,-428.85 326.59,-415.37"/>
<polygon fill="black" stroke="black" points="326.59,-408.06 329.74,-415.06 326.59,-411.56 326.59,-415.06 326.59,-415.06 326.59,-415.06 326.59,-411.56 323.44,-415.06 326.59,-408.06 326.59,-408.06"/>
</g>
<!-- 1 -->
<g id="node3" class="node">
<title>1</title>
<ellipse fill="none" stroke="black" cx="326.59" cy="-303" rx="25.2" ry="18"/>
<text text-anchor="middle" x="326.59" y="-299.3" font-family="Times,serif" font-size="14.00">0,1</text>
</g>
<!-- 0&#45;&gt;1 -->
<g id="edge2" class="edge">
<title>0&#45;&gt;1</title>
<path fill="none" stroke="#ff7f00" stroke-width="2" d="M326.59,-371.8C326.59,-359.36 326.59,-342.36 326.59,-328.5"/>
<polygon fill="#ff7f00" stroke="#ff7f00" stroke-width="2" points="326.59,-321.18 329.74,-328.18 327.09,-324.68 327.09,-328.18 326.59,-328.18 326.09,-328.18 326.09,-324.68 323.44,-328.18 326.59,-321.18 326.59,-321.18"/>
<text text-anchor="middle" x="447.09" y="-342.8" font-family="Times,serif" font-size="14.00">!accept_n &amp; !pon &amp; !req_n &amp; rstn</text>
</g>
<!-- 2 -->
<g id="node4" class="node">
<title>2</title>
<ellipse fill="none" stroke="black" cx="326.59" cy="-212" rx="25.22" ry="18"/>
<ellipse fill="none" stroke="black" cx="326.59" cy="-212" rx="29.2" ry="22"/>
<text text-anchor="middle" x="326.59" y="-208.3" font-family="Times,serif" font-size="14.00">2,0</text>
</g>
<!-- 1&#45;&gt;2 -->
<g id="edge3" class="edge">
<title>1&#45;&gt;2</title>
<path fill="none" stroke="#ff7f00" stroke-width="2" d="M326.59,-284.84C326.59,-272.54 326.59,-255.68 326.59,-241.39"/>
<polygon fill="#ff7f00" stroke="#ff7f00" stroke-width="2" points="326.59,-234.19 329.74,-241.19 327.09,-237.69 327.09,-241.19 326.59,-241.19 326.09,-241.19 326.09,-237.69 323.44,-241.19 326.59,-234.19 326.59,-234.19"/>
<text text-anchor="middle" x="441.09" y="-255.8" font-family="Times,serif" font-size="14.00">!accept_n &amp; pon &amp; req_n &amp; rstn</text>
</g>
<!-- 2&#45;&gt;2 -->
<g id="edge5" class="edge">
<title>2&#45;&gt;2</title>
<path fill="none" stroke="black" d="M353.84,-220.57C364.77,-221.06 373.94,-218.2 373.94,-212 373.94,-207.25 368.56,-204.47 361.14,-203.64"/>
<polygon fill="black" stroke="black" points="353.84,-203.43 360.93,-200.48 357.34,-203.53 360.84,-203.63 360.84,-203.63 360.84,-203.63 357.34,-203.53 360.75,-206.78 353.84,-203.43 353.84,-203.43"/>
<text text-anchor="middle" x="615.94" y="-208.3" font-family="Times,serif" font-size="14.00">(accept_n &amp; active &amp; pon &amp; rstn) | (accept_n &amp; pon &amp; req_n &amp; rstn)</text>
</g>
<!-- 3 -->
<g id="node5" class="node">
<title>3</title>
<ellipse fill="none" stroke="black" cx="326.59" cy="-117" rx="25.22" ry="18"/>
<ellipse fill="none" stroke="black" cx="326.59" cy="-117" rx="29.2" ry="22"/>
<text text-anchor="middle" x="326.59" y="-113.3" font-family="Times,serif" font-size="14.00">1,0</text>
</g>
<!-- 2&#45;&gt;3 -->
<g id="edge4" class="edge">
<title>2&#45;&gt;3</title>
<path fill="none" stroke="#ff7f00" stroke-width="2" d="M297.29,-209.63C221.56,-205.79 23.87,-193.76 4.59,-172 -34.12,-128.32 197.8,-119.97 290.01,-118.38"/>
<polygon fill="#ff7f00" stroke="#ff7f00" stroke-width="2" points="297.18,-118.26 290.23,-121.52 293.69,-118.82 290.19,-118.87 290.18,-118.37 290.17,-117.87 293.67,-117.82 290.13,-115.22 297.18,-118.26 297.18,-118.26"/>
<text text-anchor="middle" x="154.59" y="-160.8" font-family="Times,serif" font-size="14.00">accept_n &amp; !active &amp; pon &amp; !req_n &amp; rstn</text>
</g>
<!-- 3&#45;&gt;2 -->
<g id="edge8" class="edge">
<title>3&#45;&gt;2</title>
<path fill="none" stroke="black" d="M326.59,-139.02C326.59,-151.96 326.59,-168.72 326.59,-182.81"/>
<polygon fill="black" stroke="black" points="326.59,-189.9 323.44,-182.9 326.59,-186.4 326.59,-182.9 326.59,-182.9 326.59,-182.9 326.59,-186.4 329.74,-182.9 326.59,-189.9 326.59,-189.9"/>
<text text-anchor="middle" x="568.59" y="-160.8" font-family="Times,serif" font-size="14.00">(accept_n &amp; active &amp; pon &amp; rstn) | (accept_n &amp; pon &amp; req_n &amp; rstn)</text>
</g>
<!-- 3&#45;&gt;3 -->
<g id="edge7" class="edge">
<title>3&#45;&gt;3</title>
<path fill="none" stroke="black" d="M353.84,-125.57C364.77,-126.06 373.94,-123.2 373.94,-117 373.94,-112.25 368.56,-109.47 361.14,-108.64"/>
<polygon fill="black" stroke="black" points="353.84,-108.43 360.93,-105.48 357.34,-108.53 360.84,-108.63 360.84,-108.63 360.84,-108.63 357.34,-108.53 360.75,-111.78 353.84,-108.43 353.84,-108.43"/>
<text text-anchor="middle" x="573.44" y="-113.3" font-family="Times,serif" font-size="14.00">accept_n &amp; !active &amp; pon &amp; processing &amp; !req_n &amp; rstn</text>
</g>
<!-- 4 -->
<g id="node6" class="node">
<title>4</title>
<ellipse fill="none" stroke="black" cx="576.59" cy="-22" rx="25.22" ry="18"/>
<ellipse fill="none" stroke="black" cx="576.59" cy="-22" rx="29.2" ry="22"/>
<text text-anchor="middle" x="576.59" y="-18.3" font-family="Times,serif" font-size="14.00">0,0</text>
</g>
<!-- 3&#45;&gt;4 -->
<g id="edge6" class="edge">
<title>3&#45;&gt;4</title>
<path fill="none" stroke="#ff7f00" stroke-width="2" d="M345.78,-100.05C361.29,-87.94 384.15,-71.74 406.59,-62 450.54,-42.92 505.12,-32.52 540.38,-27.37"/>
<polygon fill="#ff7f00" stroke="#ff7f00" stroke-width="2" points="547.61,-26.35 541.12,-30.45 544.21,-27.33 540.75,-27.82 540.68,-27.33 540.61,-26.83 544.07,-26.34 540.23,-24.21 547.61,-26.35 547.61,-26.35"/>
<text text-anchor="middle" x="609.09" y="-65.8" font-family="Times,serif" font-size="14.00">accept_n &amp; !active &amp; pon &amp; !processing &amp; !req_n &amp; rstn</text>
</g>
<!-- 4&#45;&gt;2 -->
<g id="edge10" class="edge">
<title>4&#45;&gt;2</title>
<path fill="none" stroke="black" d="M606.26,-23.36C663.44,-24.75 785.58,-31.32 811.59,-62 843.21,-99.29 844.75,-136.07 811.59,-172 781.35,-204.77 471.05,-210.01 363.25,-210.85"/>
<polygon fill="black" stroke="black" points="356.15,-210.9 363.13,-207.7 359.65,-210.87 363.15,-210.85 363.15,-210.85 363.15,-210.85 359.65,-210.87 363.17,-214 356.15,-210.9 356.15,-210.9"/>
<text text-anchor="middle" x="950.09" y="-113.3" font-family="Times,serif" font-size="14.00">!accept_n &amp; pon &amp; req_n &amp; rstn</text>
</g>
<!-- 4&#45;&gt;4 -->
<g id="edge9" class="edge">
<title>4&#45;&gt;4</title>
<path fill="none" stroke="#ff7f00" stroke-width="2" d="M603.84,-30.57C614.77,-31.06 623.94,-28.2 623.94,-22 623.94,-17.25 618.56,-14.47 611.14,-13.64"/>
<polygon fill="#ff7f00" stroke="#ff7f00" stroke-width="2" points="603.84,-13.43 610.93,-10.48 607.35,-13.03 610.85,-13.13 610.84,-13.63 610.82,-14.13 607.32,-14.03 610.75,-16.78 603.84,-13.43 603.84,-13.43"/>
<text text-anchor="middle" x="744.44" y="-18.3" font-family="Times,serif" font-size="14.00">!accept_n &amp; !pon &amp; !req_n &amp; rstn</text>
</g>
</g>
</svg>
